<svg width="73" height="57" viewBox="0 0 73 57" fill="none" xmlns="http://www.w3.org/2000/svg">
<path d="M70.5902 12.0481C69.559 9.8328 68.0863 7.8015 66.2123 6.01276C62.6233 2.58724 57.5723 0.65189 51.6113 0.411965L51.5305 0.409299L51.4497 0.406634C48.3615 0.353318 45.7256 0.32666 43.1516 0.32666C40.5831 0.32666 38.0306 0.353318 35.3517 0.406634H35.3328C35.2843 0.406634 35.2332 0.409299 35.1847 0.411965C32.2338 0.53459 29.4687 1.17171 26.9647 2.30733C24.5523 3.4003 22.436 4.92779 20.6752 6.84449C19.0301 8.63589 17.7539 10.7045 16.8816 12.9864C16.3296 14.4313 15.9581 15.9215 15.7669 17.433L14.8084 17.6969C10.7213 18.8245 6.98956 21.3143 4.30251 24.7052C1.5293 28.2107 0 32.5239 0 36.8531C0 39.5589 0.576181 42.166 1.7097 44.6052C2.7409 46.8205 4.21366 48.8518 6.08759 50.6406C9.67661 54.0661 14.7276 56.0014 20.6887 56.2414L20.7694 56.244L20.8502 56.2467C23.9384 56.3 26.5743 56.3267 29.1483 56.3267C31.7169 56.3267 34.2693 56.3 36.9483 56.2467H36.9671C37.0156 56.2467 37.064 56.244 37.1125 56.2414C40.0634 56.1187 42.8312 55.4816 45.3379 54.346C47.7503 53.253 49.8666 51.7255 51.6274 49.8088C53.2725 48.0174 54.5487 45.9488 55.4211 43.6669C55.973 42.222 56.3446 40.7319 56.5357 39.2204L57.4942 38.9564C61.5813 37.8288 65.3131 35.339 68.0001 31.9481C70.776 28.4453 72.3053 24.1321 72.3053 19.8028C72.3026 17.0971 71.7264 14.4873 70.5902 12.0481ZM55.588 32.1987C55.3511 30.5752 53.5067 26.0168 50.5101 23.9241C50.4831 23.9055 50.4966 23.8628 50.5316 23.8628C50.8305 23.8655 51.1212 23.8655 51.4174 23.8601C54.4249 23.8601 56.0511 21.8821 56.0511 20.0081C56.0511 19.1471 55.7522 18.182 55.0468 17.425C54.3656 16.6972 53.1729 16.18 51.8159 16.1561C46.8241 16.0734 41.0542 16.0654 36.0651 16.1561C34.7082 16.18 33.5154 16.6972 32.8342 17.425C32.1288 18.1794 31.83 19.1471 31.83 20.0081C31.83 20.9465 32.3146 21.8795 32.9231 22.5193C34.0135 23.6682 36.1809 24.0894 37.4464 24.3347C42.002 25.2224 44.339 26.5233 46.3152 28.5972C48.1757 30.4793 49.5973 33.3636 49.5973 36.8531V36.8558C49.5973 42.6592 45.2921 48.8891 36.8163 49.2357C36.8163 49.2357 36.8136 49.2357 36.8083 49.2357C31.2484 49.3477 26.5232 49.3317 20.9794 49.2357C16.8708 49.0704 13.411 47.8841 11.0094 45.5942C8.60771 43.3043 7.08918 40.3453 7.08918 36.8558C7.08918 31.0551 11.3325 25.9475 16.7173 24.4599C16.9543 26.0834 18.7986 30.6419 21.7952 32.7345C21.8222 32.7532 21.8087 32.7958 21.7737 32.7958C21.4749 32.7932 21.1841 32.7932 20.8879 32.7985C17.8805 32.7985 16.2542 34.7765 16.2542 36.6506C16.2542 37.5116 16.5531 38.4766 17.2585 39.2337C17.9397 39.9614 19.1324 40.4786 20.4894 40.5026C25.4812 40.5852 31.2511 40.5932 36.2402 40.5026C37.5971 40.4786 38.7899 39.9614 39.4711 39.2337C40.1765 38.4793 40.4754 37.5116 40.4754 36.6506C40.4754 35.7122 39.9907 34.7792 39.3822 34.1394C38.2918 32.9904 36.1244 32.5692 34.8589 32.324C30.3033 31.4363 27.9663 30.1354 25.9901 28.0614C24.1296 26.1794 22.708 23.295 22.708 19.8055V19.8028C22.708 13.9994 27.0132 7.76951 35.489 7.42296C35.489 7.42296 35.4917 7.42296 35.497 7.42296C41.0569 7.311 45.7821 7.32699 51.3259 7.42296C55.4345 7.58824 58.8943 8.77451 61.2959 11.0644C63.6976 13.357 65.2161 16.3133 65.2161 19.8028C65.2161 25.6036 60.9755 30.7112 55.588 32.1987Z" fill="black"/>
</svg>
